<svg width="150" height="150" viewBox="0 0 150 150" fill="none" xmlns="http://www.w3.org/2000/svg">
<path d="M34.0101 68.0275L24.2433 65.15L26.1822 58.5689L27.8847 59.0705L26.5542 63.5867L28.8814 64.2723L30.1122 60.0947L31.8147 60.5963L30.584 64.7739L32.916 65.4609L34.2521 60.9257L35.9546 61.4273L34.0101 68.0275Z" fill="#E2E2E2"/>
<path d="M34.29 48.2299L39.5952 54.337L38.4111 56.4088L30.4564 54.9375L31.5665 52.9952L37.0972 54.3294L37.1366 54.2603L33.1774 50.1766L34.29 48.2299Z" fill="#E2E2E2"/>
<path d="M45.025 47.5324C44.4884 48.1061 43.9104 48.4913 43.2909 48.6879C42.6712 48.8798 42.043 48.8868 41.4063 48.7088C40.7671 48.5285 40.1534 48.1633 39.5651 47.6132C38.9914 47.0766 38.5921 46.4944 38.367 45.8664C38.142 45.2385 38.0975 44.6092 38.2335 43.9785C38.3717 43.3455 38.6967 42.7554 39.2083 42.2083C39.5524 41.8403 39.9321 41.5533 40.3473 41.3471C40.7623 41.1362 41.1982 41.022 41.6548 41.0043C42.1138 40.9843 42.5834 41.0741 43.0638 41.2737C43.5417 41.4711 44.0179 41.7917 44.4924 42.2354L44.9172 42.6327L40.5128 47.3423L39.5542 46.4457L42.5969 43.1923C42.3742 42.984 42.1316 42.8479 41.8692 42.784C41.6067 42.7201 41.3467 42.7288 41.0892 42.8101C40.8315 42.8867 40.5973 43.0376 40.3868 43.2628C40.1672 43.4976 40.027 43.7567 39.9661 44.0401C39.9051 44.3189 39.9178 44.594 40.0043 44.8654C40.0883 45.1346 40.2394 45.3734 40.4574 45.5819L41.3688 46.4342C41.6448 46.6923 41.9307 46.8645 42.2268 46.9507C42.525 47.0345 42.8169 47.033 43.1024 46.946C43.3879 46.8591 43.6518 46.6861 43.8941 46.4271C44.0548 46.2552 44.1777 46.0752 44.2629 45.8871C44.3481 45.699 44.3898 45.5089 44.388 45.3166C44.3863 45.1244 44.3401 44.936 44.2495 44.7514L45.6819 43.4091C45.9577 43.8032 46.1186 44.2328 46.1647 44.6979C46.2106 45.1583 46.1397 45.632 45.952 46.119C45.7641 46.6013 45.4551 47.0724 45.025 47.5324Z" fill="#E2E2E2"/>
<path d="M48.8433 38.1704L51.2854 41.8482L49.521 43.0198L45.2969 36.6581L46.9784 35.5416L47.7237 36.664L47.7982 36.6145C47.6934 36.151 47.7351 35.7015 47.9234 35.2662C48.1099 34.828 48.4393 34.4522 48.9114 34.1387C49.3532 33.8453 49.8025 33.6862 50.2595 33.6613C50.7164 33.6364 51.1551 33.743 51.5757 33.9809C51.9944 34.2161 52.3679 34.5808 52.6961 35.075L55.3857 39.1256L53.6213 40.2972L51.1407 36.5614C50.885 36.1702 50.5839 35.9325 50.2375 35.8482C49.8893 35.7611 49.5384 35.8349 49.185 36.0696C48.9475 36.2273 48.7716 36.4177 48.6572 36.6409C48.5456 36.8622 48.5038 37.1048 48.5318 37.3687C48.5607 37.628 48.6645 37.8952 48.8433 38.1704Z" fill="#E2E2E2"/>
<path d="M60.9781 28.5544L61.5288 30.047L57.2143 31.6387L56.6637 30.1462L60.9781 28.5544ZM57.0099 28.0683L58.9969 27.3353L61.4611 34.0145C61.5288 34.198 61.6095 34.3307 61.7034 34.4126C61.796 34.4915 61.8996 34.5328 62.014 34.5365C62.1315 34.5391 62.2572 34.5157 62.3909 34.4664C62.4842 34.4319 62.5746 34.3897 62.6621 34.3398C62.7485 34.2867 62.8149 34.2463 62.8612 34.2186L63.7192 35.5819C63.6312 35.6497 63.5044 35.7371 63.339 35.8441C63.1747 35.9542 62.9652 36.0615 62.7106 36.166C62.2386 36.3613 61.7953 36.4525 61.3807 36.4394C60.9692 36.4252 60.6071 36.3009 60.2945 36.0664C59.9819 35.832 59.7406 35.4795 59.5705 35.0088L57.0099 28.0683Z" fill="#E2E2E2"/>
<path d="M84.3519 27.6019C84.3097 27.3537 84.2365 27.1303 84.132 26.9318C84.028 26.73 83.8926 26.5547 83.7259 26.4059C83.5629 26.2541 83.37 26.1307 83.1472 26.0356C82.9277 25.9409 82.6796 25.878 82.403 25.8469C81.8859 25.7887 81.4169 25.8661 80.9961 26.0789C80.5785 26.2921 80.2335 26.6319 79.9609 27.0982C79.6887 27.5612 79.513 28.1451 79.4337 28.8499C79.3545 29.5548 79.3941 30.1663 79.5526 30.6844C79.7112 31.2025 79.9718 31.6137 80.3345 31.918C80.6975 32.2189 81.1458 32.3994 81.6794 32.4594C82.1636 32.5139 82.5866 32.4747 82.9483 32.342C83.3138 32.2063 83.6049 31.9905 83.8216 31.6947C84.0416 31.3993 84.1759 31.0358 84.2244 30.6044L84.6519 30.7175L82.0433 30.4241L82.2245 28.8135L86.4584 29.2896L86.3151 30.5643C86.2151 31.4536 85.9414 32.1966 85.4941 32.7933C85.0472 33.3868 84.4749 33.8194 83.7773 34.0911C83.08 34.3596 82.3065 34.4461 81.4568 34.3505C80.5082 34.2438 79.6984 33.941 79.0274 33.442C78.3568 32.9396 77.8641 32.2789 77.5493 31.4597C77.2382 30.6376 77.1427 29.693 77.2627 28.6258C77.3549 27.8057 77.5557 27.0879 77.865 26.4723C78.1781 25.8537 78.5755 25.3448 79.0573 24.9454C79.5392 24.5459 80.0798 24.2615 80.6792 24.0921C81.2785 23.9227 81.9125 23.8756 82.5811 23.9508C83.1542 24.0152 83.6784 24.1592 84.1535 24.3828C84.6291 24.603 85.0408 24.8861 85.3888 25.2321C85.7401 25.5784 86.0141 25.9744 86.2108 26.4201C86.4078 26.8625 86.5128 27.338 86.5257 27.8464L84.3519 27.6019Z" fill="#E2E2E2"/>
<path d="M89.9791 36.29C89.5205 36.1254 89.1404 35.8991 88.8388 35.6112C88.5383 35.3202 88.3401 34.9797 88.2442 34.5896C88.1526 34.1975 88.1919 33.7643 88.3621 33.2902C88.5055 32.8909 88.6992 32.5819 88.9432 32.3631C89.1873 32.1444 89.4653 31.9977 89.7773 31.9231C90.0894 31.8484 90.4211 31.8267 90.7727 31.8578C91.1273 31.8901 91.4886 31.9529 91.8566 32.0462C92.2903 32.1526 92.6417 32.233 92.911 32.2874C93.1813 32.3387 93.3882 32.3461 93.5316 32.3095C93.675 32.273 93.7742 32.1783 93.8291 32.0254L93.8391 31.9974C93.9455 31.701 93.9343 31.4381 93.8053 31.2087C93.6795 30.9804 93.4466 30.8053 93.1066 30.6832C92.7479 30.5544 92.4339 30.5315 92.1646 30.6144C91.8965 30.6942 91.6856 30.8404 91.5318 31.0528L89.742 30.2412C89.9924 29.838 90.3119 29.5267 90.7007 29.307C91.0905 29.0843 91.5331 28.965 92.0283 28.9491C92.5277 28.9312 93.0644 29.0253 93.6384 29.2313C94.0377 29.3747 94.403 29.5587 94.7344 29.7833C95.0689 30.009 95.3428 30.2711 95.5561 30.5696C95.7726 30.8691 95.908 31.203 95.9625 31.5712C96.018 31.9362 95.9691 32.3324 95.8157 32.7598L94.0753 37.6074L92.1849 36.9287L92.5427 35.9321L92.4866 35.9119C92.2905 36.0951 92.065 36.2377 91.81 36.3399C91.5561 36.4389 91.2761 36.488 90.97 36.4873C90.665 36.4834 90.3347 36.4177 89.9791 36.29ZM91.0438 35.1193C91.3371 35.2245 91.6167 35.2598 91.8827 35.225C92.1499 35.1871 92.3833 35.0913 92.5828 34.9376C92.7824 34.7838 92.9275 34.5806 93.0183 34.328L93.2921 33.5653C93.2151 33.5834 93.1159 33.59 92.9944 33.5852C92.8772 33.5783 92.7464 33.5648 92.6022 33.5447C92.4591 33.5215 92.3166 33.4967 92.1746 33.4704C92.0337 33.441 91.9059 33.4145 91.7911 33.3909C91.5449 33.3412 91.3209 33.3224 91.1194 33.3346C90.9178 33.3467 90.7457 33.3994 90.6031 33.4926C90.4616 33.5826 90.3572 33.7212 90.29 33.9084C90.1926 34.1798 90.2164 34.4225 90.3614 34.6366C90.5107 34.8486 90.7381 35.0095 91.0438 35.1193Z" fill="#E2E2E2"/>
<path d="M106.177 32.9166L100.619 41.4478L98.8445 40.2918L104.402 31.7606L106.177 32.9166Z" fill="#E2E2E2"/>
<path d="M106.756 46.7753C106.42 46.4224 106.182 46.0496 106.041 45.657C105.903 45.262 105.879 44.8688 105.968 44.4771C106.062 44.0856 106.292 43.7162 106.657 43.3689C106.964 43.0764 107.276 42.8872 107.592 42.8012C107.909 42.7152 108.223 42.7089 108.535 42.7823C108.847 42.8557 109.154 42.9851 109.454 43.1707C109.756 43.3587 110.051 43.577 110.338 43.8256C110.678 44.1153 110.956 44.3449 111.172 44.5143C111.39 44.6815 111.572 44.7809 111.717 44.8126C111.861 44.8443 111.992 44.8042 112.11 44.6922L112.132 44.6717C112.36 44.4546 112.468 44.2146 112.455 43.9517C112.445 43.6913 112.316 43.4302 112.067 43.1685C111.804 42.8924 111.534 42.731 111.256 42.6843C110.98 42.6353 110.726 42.6712 110.494 42.792L109.258 41.2635C109.663 41.0156 110.088 40.8807 110.534 40.859C110.983 40.8349 111.432 40.9268 111.881 41.1349C112.336 41.343 112.773 41.668 113.194 42.1097C113.486 42.417 113.73 42.7454 113.925 43.0949C114.123 43.4467 114.25 43.8039 114.307 44.1663C114.366 44.5311 114.337 44.8903 114.22 45.2437C114.106 45.5949 113.885 45.927 113.556 46.2401L109.825 49.791L108.44 48.3361L109.207 47.606L109.166 47.5628C108.909 47.6385 108.643 47.6647 108.369 47.6416C108.098 47.6161 107.826 47.5343 107.553 47.3963C107.282 47.256 107.016 47.049 106.756 46.7753ZM108.232 46.2069C108.447 46.4326 108.681 46.5896 108.935 46.6779C109.19 46.764 109.442 46.7831 109.689 46.7353C109.937 46.6875 110.158 46.571 110.352 46.3859L110.939 45.8272C110.862 45.8089 110.77 45.7703 110.664 45.7114C110.562 45.6527 110.452 45.5819 110.332 45.4993C110.214 45.4143 110.098 45.3282 109.983 45.241C109.87 45.1514 109.768 45.0704 109.676 44.9978C109.478 44.8429 109.287 44.7256 109.101 44.646C108.915 44.5664 108.738 44.5362 108.569 44.5555C108.402 44.5724 108.246 44.6495 108.102 44.7866C107.893 44.9854 107.806 45.2129 107.839 45.4693C107.877 45.7258 108.009 45.9717 108.232 46.2069Z" fill="#E2E2E2"/>
<path d="M119.423 50.3873L117.823 52.9434L120.853 52.8395L121.947 54.7163L117.534 54.7287L115.381 58.6149L114.291 56.7468L115.813 54.1155L112.786 54.1657L111.684 52.2761L116.124 52.3109L118.321 48.4977L119.423 50.3873Z" fill="#E2E2E2"/>
<path d="M114.175 63.5943C114.097 63.3374 114.044 63.0902 114.017 62.8525C113.987 62.619 113.981 62.4201 113.996 62.2559L115.648 62.2525C115.647 62.5125 115.673 62.7386 115.724 62.9308C115.777 63.1261 115.872 63.2791 116.009 63.3897C116.148 63.5034 116.345 63.57 116.6 63.5893L116.945 63.6142L123.664 58.7076L124.312 60.8385L119.406 63.9829L119.43 64.059L125.259 63.954L125.912 66.0991L116.953 65.7218C116.518 65.7051 116.119 65.6237 115.756 65.4778C115.391 65.336 115.075 65.1117 114.808 64.8047C114.538 64.4988 114.327 64.0953 114.175 63.5943Z" fill="#E2E2E2"/>
<path fill-rule="evenodd" clip-rule="evenodd" d="M128.104 128.124C141.156 115.128 148.952 97.7783 150 79.3973V78.9652C149.952 78.2308 149.661 77.528 149.167 76.9713C148.576 76.3061 147.744 75.9049 146.855 75.8566C145.959 75.7989 145.076 76.1002 144.402 76.6944C143.728 77.2884 143.319 78.1259 143.265 79.0222C141.118 115.833 110.147 144.313 73.2541 143.401C36.3615 142.489 6.8374 112.513 6.51588 75.6415C6.19414 38.7699 35.1906 8.28431 72.0617 6.72978C73.8221 6.52849 75.1281 5.00287 75.0539 3.234C74.98 1.46514 73.5513 0.053745 71.7801 0C38.2526 1.48446 9.78058 25.0153 2.03415 57.6421C-5.71251 90.2691 9.14693 124.071 38.4344 140.445C67.722 156.818 104.327 151.789 128.104 128.124ZM58.8101 115.501C75.0044 121.946 93.4845 118.142 105.809 105.824C112.95 98.6546 117.379 89.2315 118.341 79.1628V78.9987C118.536 77.2438 120.052 75.9354 121.818 75.9968C123.584 76.0582 125.004 77.4689 125.077 79.2332V79.7256C122.581 106.245 99.8254 126.222 73.1833 125.283C46.5413 124.344 25.2513 102.814 24.6322 76.1849C24.6322 74.3329 26.1347 72.8317 27.9882 72.8317C29.8417 72.8317 31.3442 74.3329 31.3442 76.1849C31.8161 93.5958 42.616 109.055 58.8101 115.501Z" fill="#E2E2E2" fill-opacity="0.933333"/>
<path fill-rule="evenodd" clip-rule="evenodd" d="M12.241 75.0359C12.3071 108.746 39.0467 136.366 72.7641 137.552C106.481 138.739 135.099 113.066 137.538 79.4442C137.668 77.5922 136.27 75.986 134.417 75.8566C132.564 75.7271 130.956 77.1233 130.826 78.9752C129.085 103.767 111.191 124.442 86.8901 129.741C62.5892 135.04 37.701 123.695 25.7796 101.883C13.8581 80.0712 17.7588 53.0173 35.3572 35.4544C36.2669 34.1139 36.096 32.317 34.9498 31.1718C33.8036 30.0265 32.005 29.8558 30.6636 30.7647C18.8822 42.4919 12.2541 58.4199 12.241 75.0359ZM37.5398 75.0359C37.5593 92.8665 50.1813 108.201 67.6874 111.661C85.1936 115.122 102.709 105.746 109.523 89.2664C116.336 72.7867 110.551 53.7927 95.7049 43.8993C80.8583 34.0058 61.0849 35.9677 48.476 48.5857C41.4564 55.5992 37.5213 65.1171 37.5398 75.0359ZM96.68 53.3224C105.467 62.1004 108.097 75.3032 103.342 86.7736C98.5877 98.2442 87.3858 105.723 74.96 105.723C62.5343 105.723 51.3324 98.2442 46.5777 86.7736C41.8232 75.3032 44.4529 62.1004 53.2401 53.3224C58.9732 47.5153 66.7964 44.2461 74.96 44.2461C83.1237 44.2461 90.9469 47.5153 96.68 53.3224Z" fill="#F2C70D"/>
</svg>
